<?xml version="1.0" standalone="no"?><!DOCTYPE svg PUBLIC "-//W3C//DTD SVG 1.1//EN" "http://www.w3.org/Graphics/SVG/1.1/DTD/svg11.dtd"><svg t="1515121168689" class="icon" style="" viewBox="0 0 1024 1024" version="1.1" xmlns="http://www.w3.org/2000/svg" p-id="1865" xmlns:xlink="http://www.w3.org/1999/xlink" width="200" height="200"><defs><style type="text/css"></style></defs><path d="M512 0C228.693333 0 0 228.693333 0 512c0 283.306667 228.693333 512 512 512 283.306667 0 512-228.693333 512-512C1024 228.693333 795.306667 0 512 0zM750.933333 539.306667l-211.626667 0L539.306667 750.933333c0 13.653333-10.24 27.306667-27.306667 27.306667s-27.306667-10.24-27.306667-27.306667l0-211.626667L273.066667 539.306667c-13.653333 0-27.306667-10.24-27.306667-27.306667s10.24-27.306667 27.306667-27.306667l211.626667 0L484.693333 273.066667c0-13.653333 10.24-23.893333 27.306667-23.893333s27.306667 10.24 27.306667 23.893333l0 211.626667L750.933333 484.693333c13.653333 0 27.306667 10.24 27.306667 27.306667S764.586667 539.306667 750.933333 539.306667z" p-id="1866" fill="#1296db"></path></svg>