<?xml version="1.0" standalone="no"?><!DOCTYPE svg PUBLIC "-//W3C//DTD SVG 1.1//EN" "http://www.w3.org/Graphics/SVG/1.1/DTD/svg11.dtd"><svg t="1515122216361" class="icon" style="" viewBox="0 0 1024 1024" version="1.1" xmlns="http://www.w3.org/2000/svg" p-id="2594" xmlns:xlink="http://www.w3.org/1999/xlink" width="200" height="200"><defs><style type="text/css"></style></defs><path d="M512.236308 0.669538c282.624 0 511.684923 229.060923 511.684923 511.645539S794.860308 1024 512.236308 1024C229.651692 1024 0.551385 794.899692 0.551385 512.315077 0.551385 229.730462 229.651692 0.669538 512.236308 0.669538z m139.027692 773.671385a39.305846 39.305846 0 1 0 0-78.611692 39.305846 39.305846 0 0 0 0 78.611692z m-240.167385 11.027692a54.035692 54.035692 0 1 0 0-108.071384 54.035692 54.035692 0 0 0 0 108.110769zM171.086769 307.278769c0 15.241846 13.233231 27.648 29.538462 27.648h93.026461l105.55077 299.244308a27.569231 27.569231 0 0 0 28.356923 18.865231c0.748308 0.039385 1.496615 0.118154 2.323692 0.118154h283.569231c15.872 0 28.750769-12.406154 28.750769-27.648v-8.585847c0-15.241846-12.878769-27.648-28.750769-27.648h-262.380308l-14.020923-39.660307h324.135385a27.648 27.648 0 0 0 27.687384-27.648v-8.546462a27.648 27.648 0 0 0-27.648-27.687384H414.523077l-13.627077-38.675693h389.789538a27.648 27.648 0 0 0 27.687385-27.648v-8.585846a27.648 27.648 0 0 0-27.687385-27.648H378.328615l-33.161846-94.129231a27.490462 27.490462 0 0 0-24.654769-18.904615 31.192615 31.192615 0 0 0-4.371692-0.315077H200.625231c-16.305231 0-29.538462 12.366769-29.538462 27.648V307.2z" p-id="2595" fill="#515151"></path></svg>