<?xml version="1.0" standalone="no"?><!DOCTYPE svg PUBLIC "-//W3C//DTD SVG 1.1//EN" "http://www.w3.org/Graphics/SVG/1.1/DTD/svg11.dtd"><svg t="1515053611897" class="icon" style="" viewBox="0 0 1024 1024" version="1.1" xmlns="http://www.w3.org/2000/svg" p-id="2873" xmlns:xlink="http://www.w3.org/1999/xlink" width="200" height="200"><defs><style type="text/css"></style></defs><path d="M519.168 926.72C283.648 926.72 92.16 735.232 92.16 499.712 92.16 263.168 283.648 71.68 519.168 71.68c235.52 0 428.032 191.488 428.032 428.032 0 235.52-192.512 427.008-428.032 427.008z m0-824.32C300.032 102.4 122.88 280.576 122.88 499.712s178.176 397.312 397.312 397.312 397.312-178.176 397.312-397.312C916.48 280.576 738.304 102.4 519.168 102.4z" p-id="2874" fill="#cdcdcd"></path><path d="M351.232 688.128c-5.12 0-10.24-2.048-14.336-6.144-8.192-8.192-8.192-20.48 0-28.672l329.728-338.944c8.192-8.192 20.48-8.192 28.672 0 8.192 8.192 8.192 20.48 0 28.672L366.592 681.984c-4.096 4.096-9.216 6.144-15.36 6.144z" p-id="2875" fill="#cdcdcd"></path><path d="M686.08 687.104c-5.12 0-10.24-2.048-14.336-6.144L342.016 342.016c-8.192-8.192-8.192-21.504 0-28.672s21.504-8.192 28.672 0l329.728 338.944c8.192 8.192 8.192 21.504 0 28.672-4.096 4.096-9.216 6.144-14.336 6.144z" p-id="2876" fill="#cdcdcd"></path></svg>