<?xml version="1.0" standalone="no"?><!DOCTYPE svg PUBLIC "-//W3C//DTD SVG 1.1//EN" "http://www.w3.org/Graphics/SVG/1.1/DTD/svg11.dtd"><svg t="1516346902348" class="icon" style="" viewBox="0 0 1024 1024" version="1.1" xmlns="http://www.w3.org/2000/svg" p-id="2966" xmlns:xlink="http://www.w3.org/1999/xlink" width="200" height="200"><defs><style type="text/css"></style></defs><path d="M410.143683 330.021366l-95.092775 97.094362c26.690896 58.725496 64.896032 114.110921 114.611318 166.161391 49.712215 52.048423 103.263875 87.751576 160.653957 107.101273l82.080413-82.07632c130.125663 22.687722 209.866798 41.374316 239.229546 56.054667 36.036751 17.34504 50.715055 53.714366 44.043099 109.104907-2.004657 14.677281-7.840572 31.529087-17.516956 50.547233-9.67843 19.017122-22.687722 38.038338-39.037085 57.05546-16.349363 19.017122-37.70167 35.033911-64.061015 48.046273-26.357298 13.014408-54.555523 19.518542-84.58342 19.518542-31.363312 0.666172-66.398246-4.839215-105.10071-16.515139-38.706557-11.68104-77.741595-27.696806-117.116371-48.048319-39.368636-20.352537-78.908164-45.376467-118.610398-75.071789-39.705304-29.698392-75.908854-62.229297-108.605533-97.594759-48.713468-51.384297-90.756003-102.267175-126.122489-152.647609-35.366486-50.381457-63.895239-104.597243-85.582167-162.655544-21.691021-58.055231-29.529547-111.442138-23.523763-160.154583 3.333932-28.695552 11.178597-54.384631 23.523763-77.072353 12.343119-22.692838 25.690102-40.374546 40.038902-53.05331 14.34573-12.678764 30.195719-23.187095 47.545876-31.531134 17.347087-8.341992 31.862685-13.846356 43.538609-16.515139 11.682064-2.668783 21.856797-4.338818 30.531364-5.004991 17.352203-1.334391 32.697703 0.665149 46.045709 6.006807 13.34289 5.338588 25.02393 14.34573 35.033911 27.024493 4.668323 6.005784 10.509355 18.185174 17.516956 36.533055 7.004531 18.352997 13.847379 38.371936 20.518313 60.058864 6.671956 21.691021 13.181207 43.044352 19.519566 64.065108 6.340405 21.016663 11.177574 38.533618 14.511505 52.550867L410.143683 330.021366 410.143683 330.021366zM410.143683 330.021366" p-id="2967" fill="#2aa515"></path></svg>