<?xml version="1.0" standalone="no"?><!DOCTYPE svg PUBLIC "-//W3C//DTD SVG 1.1//EN" "http://www.w3.org/Graphics/SVG/1.1/DTD/svg11.dtd"><svg t="1516159053556" class="icon" style="" viewBox="0 0 1024 1024" version="1.1" xmlns="http://www.w3.org/2000/svg" p-id="5937" xmlns:xlink="http://www.w3.org/1999/xlink" width="200" height="200"><defs><style type="text/css"></style></defs><path d="M512 0C229.216 0 0 229.216 0 512c0 282.768 229.216 512 512 512 282.752 0 512-229.232 512-512C1024 229.216 794.752 0 512 0zM512 992C246.896 992 32 777.088 32 512 32 246.896 246.896 32 512 32c265.056 0 480 214.896 480 480C992 777.088 777.056 992 512 992z" p-id="5938" fill="#1296db"></path><path d="M781.632 322.368c-6.256-6.256-14.432-9.376-22.624-9.376l-116.992 0c-8.848 0-16 7.168-16 16s7.152 16 16 16l100.992 0c4.096 0 8.192 1.568 11.312 4.688s4.688 7.216 4.688 11.312l0 314c0 4.096-1.568 8.192-4.688 11.312s-7.216 4.688-11.312 4.688L280.992 690.992c-4.096 0-8.192-1.568-11.312-4.688s-4.688-7.216-4.688-11.312L264.992 360.992c0-4.096 1.568-8.192 4.688-11.312s7.216-4.688 11.312-4.688l101.008 0c8.832 0 16-7.168 16-16s-7.168-16-16-16l-117.008 0c-8.192 0-16.384 3.12-22.624 9.376-6.256 6.24-9.376 14.432-9.376 22.624l0 346c0 8.192 3.12 16.368 9.376 22.624 6.24 6.256 14.432 9.376 22.624 9.376l494 0c8.192 0 16.368-3.12 22.624-9.376s9.376-14.432 9.376-22.624L790.992 344.992C791.008 336.816 787.872 328.624 781.632 322.368z" p-id="5939" fill="#1296db"></path><path d="M387.552 495.184l113.136 113.12c0.176 0.192 0.432 0.24 0.624 0.4 1.344 1.232 2.848 2.336 4.576 3.04 1.968 0.816 4.032 1.232 6.128 1.232s4.16-0.416 6.112-1.232c1.984-0.816 3.76-1.984 5.232-3.472l113.088-113.104c6.256-6.256 6.256-16.384 0-22.64s-16.368-6.256-22.624 0L528 558.368 528 252.992c0-8.832-7.152-16-16-16s-16 7.168-16 16l0 305.376-85.84-85.824c-6.256-6.256-16.368-6.256-22.624 0S381.296 488.944 387.552 495.184z" p-id="5940" fill="#1296db"></path></svg>