<?xml version="1.0" standalone="no"?><!DOCTYPE svg PUBLIC "-//W3C//DTD SVG 1.1//EN" "http://www.w3.org/Graphics/SVG/1.1/DTD/svg11.dtd"><svg t="1517883849650" class="icon" style="" viewBox="0 0 1024 1024" version="1.1" xmlns="http://www.w3.org/2000/svg" p-id="1571" xmlns:xlink="http://www.w3.org/1999/xlink" width="200" height="200"><defs><style type="text/css"></style></defs><path d="M227.154533 527.392572c-23.375383-5.718235-31.907711-19.342534-25.575492-40.893362l24.286126-90.635253 30.212092 8.095375-4.774747 17.816784 91.410919 24.493857 9.963932-37.183877-127.044488-34.042327 7.265474-27.113521 157.25658 42.136679-24.493857 91.409896-121.623012-32.588209-10.17064 37.95852c-3.289929 10.197246 0.298805 16.412808 10.775414 18.662035l73.593112 19.718087c12.115945 4.363378 20.137643 1.245364 24.085558-9.320273 0.551562-2.058892 2.029216-5.541203 4.455475-10.43056 2.169409-6.061043 3.935636-10.56973 5.285377-13.529131 10.015098 6.004761 19.125593 11.222599 27.362184 15.634072-4.869914 11.979846-9.731642 22.857591-14.556531 32.631188-7.249101 14.663978-21.394263 18.891256-42.427298 12.709463L227.154533 527.392572z" p-id="1572" fill="#bfbfbf"></path><path d="M399.750473 581.942979l-2.542916-33.892925c1.963725-1.133823 4.840238-2.568499 8.632611-4.327562 2.7486-2.02717 8.841366-5.104251 18.247596-9.227152l12.246929-45.704948-20.914332-5.604648 7.264451-27.113521 48.802496 13.07683-19.511379 72.817446c5.039783 16.297175 15.888875 26.40437 32.562627 30.3134 26.707268 7.714705 60.537771 16.779152 101.481276 27.191292-5.03876 6.407943-10.162454 14.155395-15.371082 23.281239-27.888164-7.472182-47.77612-12.801561-59.649542-15.98302-14.845103-4.536316-28.383444-8.720615-40.641629-12.551874-19.633153-5.260817-32.873712-15.735379-39.74112-31.405267-2.623757 1.515516-6.227842 3.585665-10.80509 6.239098C409.330666 575.09092 402.638243 579.394946 399.750473 581.942979zM458.69291 454.928167c-4.15053-15.498996-8.820899-31.137161-13.995759-46.924729l27.126824-5.185093c5.976108 14.886035 11.429307 29.631878 16.374946 44.240597L458.69291 454.928167zM501.016855 529.369599c-3.232624-8.610098-8.025791-20.688181-14.370289-36.231179-1.760087-3.792373-2.939959-6.599302-3.553942-8.423857l24.859177-9.114588c7.525394 15.301498 14.411221 29.885658 20.663622 43.729967L501.016855 529.369599zM486.732523 464.930985l6.642281-24.789593 69.719898 18.681478 8.095375-30.211069 29.437449 7.887644-8.095375 30.211069 24.01495 6.435573-6.642281 24.789593-24.01495-6.435573-15.567557 58.099233c-5.061272 23.008017-18.500353 31.861662-40.326451 26.557866-7.378038-1.419326-18.800181-4.206812-34.294061-8.358365 1.493004-11.769045 1.914606-21.61939 1.276063-29.547966 9.156544 3.009544 18.383696 5.756097 27.679409 8.246825 10.18599 3.28686 16.080234-0.115634 17.680684-10.208503l14.114462-52.676733L486.732523 464.930985z" p-id="1573" fill="#bfbfbf"></path><path d="M644.432195 491.412103l6.226818-23.239284 10.070356 2.698458 4.151553-15.493879 26.337855 7.05672-4.151553 15.493879 26.338878 7.057743 4.359284-16.267499 26.337855 7.05672-4.359284 16.267499 10.070356 2.698458-6.226818 23.23826-10.070356-2.698458-20.964474 78.241992 13.169951 3.52836-2.90619 10.846022c4.176113-9.389858 8.271384-21.577434 12.286838-36.561707l23.040762-85.987397 74.368778 19.927865-41.513486 154.932652c-3.596921 13.422707-11.998265 18.916838-25.179472 16.500812-2.069125-0.554632-6.197142-1.660826-12.393261-3.320629-7.374968-1.431605-12.603039-2.545986-15.70161-3.37691 1.355881-11.260461 1.954515-19.688411 1.786693-25.261337 6.197142 1.660826 11.619642 3.113921 16.267499 4.359284 6.566556 2.317789 10.426467 0.302899 11.577686-6.030343l6.227842-23.240307-23.240307-6.227842c-8.955976 23.067368-21.960151 40.612976-39.015595 52.648081-3.921309-6.033413-8.420787-11.948123-13.512758-17.735943l-16.075117 7.316639c-4.468778-12.276604-9.955746-24.813129-16.486486-37.629016l18.6078-7.468089-36.409235-9.756201 13.927197 16.185634c-13.657045 9.625218-26.113751 17.911952-37.379329 24.856108-4.028757-7.721869-9.142218-15.46011-15.366989-23.214724 11.370978-5.255701 21.978571-11.819187 31.846312-19.695574l-25.563212-6.850012 6.226818-23.239284 12.394285 3.320629 20.964474-78.239945L644.432195 491.412103zM663.196561 567.013965l-3.320629 12.394285 26.338878 7.057743 3.320629-12.395308L663.196561 567.013965zM671.914106 534.477944l-3.320629 12.394285 26.338878 7.057743 3.320629-12.395308L671.914106 534.477944zM680.840406 501.168304l-3.320629 12.394285 26.337855 7.05672 3.321652-12.394285L680.840406 501.168304zM702.685947 636.544551c5.26798-5.230118 9.840112-10.9197 13.710256-17.083074l-26.337855-7.05672C694.315302 621.302405 698.519044 629.343545 702.685947 636.544551zM760.25306 579.734684c-0.830925 3.098571-1.660826 6.198166-2.491751 9.295714l22.464641 6.02011 6.02011-22.464641-22.464641-6.02011L760.25306 579.734684zM776.650519 518.53688l-6.226818 23.240307 22.464641 6.02011 6.226818-23.240307L776.650519 518.53688z" p-id="1574" fill="#bfbfbf"></path><path d="M512 297.357432c70.719668 0 133.443221 34.206056 172.547845 86.968747l27.357068 7.329942c-40.839127-67.693752-115.083062-112.963795-199.904912-112.963795-40.980343 0-79.483262 10.578939-112.952538 29.134551l27.304879 7.316639C452.590935 303.712163 481.551524 297.357432 512 297.357432zM652.945079 285.216927l14.980179 12.141528 4.617158-18.197454 16.767895-9.79918-16.767895-9.79918-4.617158-18.197454-14.980179 12.143575-19.62599-1.450025 7.512091 17.304108-7.512091 17.302061L652.945079 285.216927zM393.037585 244.49241l-15.410991-10.724249-3.363607 18.987447-15.775288 11.762905 17.012466 8.15268 5.656837 17.994839 13.879102-13.951757 19.272949-0.64059-8.43409-16.774035 6.252401-18.391882L393.037585 244.49241zM537.309432 218.257909l-11.42112-14.901385-8.977465 17.066701-18.602683 6.411013 13.727653 12.936637-0.076748 18.86465 17.460674-9.072633 18.556635 5.246491-2.935865-18.543332 11.545964-15.618723L537.309432 218.257909zM746.131435 335.440795l-16.180518-11.200086-2.301416 18.724457-15.247262 11.101849 17.648962 8.703219 6.754844 18.063401 13.204743-13.34289 19.424398 0.059352-9.485025-16.951067 5.248537-18.026562L746.131435 335.440795zM956.288852 476.464669 145.002488 259.078617c-19.913539-5.334495-40.380686 6.483668-45.719274 26.397207L41.315988 501.818103c-5.334495 19.913539 6.482645 40.382733 26.39516 45.719274l811.286364 217.381959c19.913539 5.336542 40.382733-6.480598 45.719274-26.39516l57.966203-216.34228C988.020554 502.268358 976.202391 481.799164 956.288852 476.464669zM962.239378 526.366196l-53.136198 198.312648c-4.003174 14.935154-19.354813 23.799032-34.288944 19.797905L81.556481 531.924795c-14.935154-4.003174-23.796986-19.354813-19.797905-34.288944l53.140291-198.316741c4.000104-14.935154 19.352767-23.796986 34.288944-19.795858l793.255709 212.551954C957.378673 496.077356 966.242552 511.431042 962.239378 526.366196zM512 176.038342c155.48012 0 286.266839 105.624642 324.580446 249.025657l20.653389 5.53404c-36.787858-156.61906-177.391153-273.223778-345.232812-273.223778-101.768825 0-193.520505 42.872436-258.192434 111.537306l20.632923 5.528923C335.237157 213.641775 419.22706 176.038342 512 176.038342zM597.648682 708.85546c-26.239618 11.432377-55.200206 17.786085-85.648682 17.786085-70.718645 0-133.443221-34.206056-172.548868-86.970794l-27.358091-7.330966c40.839127 67.694775 115.083062 112.965841 199.906959 112.965841 40.980343 0 79.484286-10.578939 112.953561-29.134551L597.648682 708.85546zM397.395846 747.608066l-14.860453-12.114922-4.578272 18.156522-16.633842 9.774621 16.633842 9.776667 4.578272 18.155499 14.860453-12.112875 19.463284 1.444908-7.450692-17.263176 7.450692-17.263176L397.395846 747.608066zM511.941672 805.096385l11.328 14.868639 8.904811-17.027815 18.451234-6.39464-13.617136-12.906961 0.078795-18.819624-17.318434 9.05012-18.407232-5.235235 2.911306 18.500353-11.450796 15.582907L511.941672 805.096385zM276.004101 687.780469l15.21861 12.281721 3.594875-18.472723 15.868409-9.981329-16.84669-9.897418-5.412266-18.448164-14.005992 12.354376-19.215644-1.420349 8.18952 17.533328-6.463202 17.569144L276.004101 687.780469zM512 847.961658c-155.479097 0-286.267862-105.625666-324.580446-249.02668l-20.653389-5.53404c36.786835 156.61906 177.391153 273.225825 345.233835 273.225825 101.768825 0 193.521528-42.872436 258.193457-111.537306l-20.6319-5.5279C688.763866 810.358225 604.773963 847.961658 512 847.961658zM646.923946 779.475867l15.312754 10.715039 3.302209-18.929118 15.635095-11.704576-16.898879-8.15268-5.65172-17.951861-13.746072 13.892405-19.125593 0.611937 8.401344 16.736173-6.166443 18.328437L646.923946 779.475867z" p-id="1575" fill="#bfbfbf"></path></svg>